<svg width="20" height="16" viewBox="0 0 20 16" fill="none" xmlns="http://www.w3.org/2000/svg">
<g filter="url(#filter0_d_3_47)">
<path d="M3.14286 0.285706H8.85714C9.16025 0.285706 9.45094 0.406114 9.66527 0.620441C9.87959 0.834768 10 1.12546 10 1.42856C10 1.73167 9.87959 2.02236 9.66527 2.23668C9.45094 2.45101 9.16025 2.57142 8.85714 2.57142H3.14286C2.83975 2.57142 2.54906 2.45101 2.33474 2.23668C2.12041 2.02236 2 1.73167 2 1.42856C2 1.12546 2.12041 0.834768 2.33474 0.620441C2.54906 0.406114 2.83975 0.285706 3.14286 0.285706V0.285706ZM11.1429 9.42856H16.8571C17.1602 9.42856 17.4509 9.54897 17.6653 9.7633C17.8796 9.97763 18 10.2683 18 10.5714C18 10.8745 17.8796 11.1652 17.6653 11.3795C17.4509 11.5939 17.1602 11.7143 16.8571 11.7143H11.1429C10.8398 11.7143 10.5491 11.5939 10.3347 11.3795C10.1204 11.1652 10 10.8745 10 10.5714C10 10.2683 10.1204 9.97763 10.3347 9.7633C10.5491 9.54897 10.8398 9.42856 11.1429 9.42856V9.42856ZM3.14286 4.85713H16.8571C17.1602 4.85713 17.4509 4.97754 17.6653 5.19187C17.8796 5.4062 18 5.69689 18 5.99999C18 6.3031 17.8796 6.59379 17.6653 6.80811C17.4509 7.02244 17.1602 7.14285 16.8571 7.14285H3.14286C2.83975 7.14285 2.54906 7.02244 2.33474 6.80811C2.12041 6.59379 2 6.3031 2 5.99999C2 5.69689 2.12041 5.4062 2.33474 5.19187C2.54906 4.97754 2.83975 4.85713 3.14286 4.85713Z" fill="#EDEDF5"/>
<path d="M3.14286 0.785706H8.85714C9.02764 0.785706 9.19115 0.853435 9.31171 0.973994C9.43227 1.09455 9.5 1.25807 9.5 1.42856C9.5 1.59906 9.43227 1.76257 9.31171 1.88313C9.19115 2.00369 9.02764 2.07142 8.85714 2.07142H3.14286C2.97236 2.07142 2.80885 2.00369 2.68829 1.88313C2.56773 1.76257 2.5 1.59906 2.5 1.42856C2.5 1.25807 2.56773 1.09455 2.68829 0.973994C2.80885 0.853435 2.97236 0.785706 3.14286 0.785706ZM11.1429 9.92856H16.8571C17.0276 9.92856 17.1912 9.99629 17.3117 10.1169C17.4323 10.2374 17.5 10.4009 17.5 10.5714C17.5 10.7419 17.4323 10.9054 17.3117 11.026C17.1912 11.1465 17.0276 11.2143 16.8571 11.2143H11.1429C10.9724 11.2143 10.8088 11.1465 10.6883 11.026C10.5677 10.9054 10.5 10.7419 10.5 10.5714C10.5 10.4009 10.5677 10.2374 10.6883 10.1169C10.8088 9.99629 10.9724 9.92856 11.1429 9.92856ZM3.14286 5.35713H16.8571C17.0276 5.35713 17.1912 5.42486 17.3117 5.54542C17.4323 5.66598 17.5 5.82949 17.5 5.99999C17.5 6.17049 17.4323 6.334 17.3117 6.45456C17.1912 6.57512 17.0276 6.64285 16.8571 6.64285H3.14286C2.97236 6.64285 2.80885 6.57512 2.68829 6.45456C2.56773 6.334 2.5 6.17049 2.5 5.99999C2.5 5.8295 2.56773 5.66598 2.68829 5.54542C2.80885 5.42486 2.97236 5.35713 3.14286 5.35713Z" stroke="black"/>
</g>
<defs>
<filter id="filter0_d_3_47" x="-2" y="0.285706" width="24" height="19.4286" filterUnits="userSpaceOnUse" color-interpolation-filters="sRGB">
<feFlood flood-opacity="0" result="BackgroundImageFix"/>
<feColorMatrix in="SourceAlpha" type="matrix" values="0 0 0 0 0 0 0 0 0 0 0 0 0 0 0 0 0 0 127 0" result="hardAlpha"/>
<feOffset dy="4"/>
<feGaussianBlur stdDeviation="2"/>
<feComposite in2="hardAlpha" operator="out"/>
<feColorMatrix type="matrix" values="0 0 0 0 0 0 0 0 0 0 0 0 0 0 0 0 0 0 0.25 0"/>
<feBlend mode="normal" in2="BackgroundImageFix" result="effect1_dropShadow_3_47"/>
<feBlend mode="normal" in="SourceGraphic" in2="effect1_dropShadow_3_47" result="shape"/>
</filter>
</defs>
</svg>
